<?xml version="1.0" encoding="utf-8"?>
<!-- Generator: Adobe Illustrator 27.7.0, SVG Export Plug-In . SVG Version: 6.00 Build 0)  -->
<svg version="1.1" id="Layer_1" xmlns="http://www.w3.org/2000/svg" xmlns:xlink="http://www.w3.org/1999/xlink" x="0px" y="0px"
	 viewBox="0 0 300 300" enable-background="new 0 0 300 300" xml:space="preserve">
<g>
	<g>
		<g>
			<path fill="#808285" d="M125.772,174.217v-10.178c2.966,2.818,5.843,4.23,8.623,4.23c2.067,0,3.832-0.725,5.294-2.171
				c1.468-1.444,2.2-3.185,2.2-5.222c0-1.75-0.413-3.873-1.235-6.367c-0.825-2.493-3.047-7.1-6.659-13.819
				c-3.615-6.72-5.964-11.811-7.05-15.274c-1.086-3.461-1.629-6.513-1.629-9.157c0-5.137,1.458-9.333,4.381-12.59
				c2.92-3.258,6.649-4.887,11.186-4.887c2.569,0,5.306,0.67,8.208,2.014v9.301c-2.703-1.6-5.008-2.403-6.919-2.403
				c-4.99,0-7.488,2.43-7.488,7.281c0,1.786,0.425,3.938,1.27,6.451c0.841,2.512,3.068,7.09,6.684,13.735
				c3.615,6.644,5.958,11.709,7.022,15.188c1.067,3.482,1.601,6.564,1.601,9.241c0,5.214-1.462,9.446-4.384,12.706
				c-2.926,3.257-6.718,4.885-11.379,4.885C132.145,177.182,128.903,176.193,125.772,174.217"/>
		</g>
		<path fill="#808285" d="M155.471,176.152l14.385-76.801h10.199l14.277,76.801h-9.482l-2.731-16.914h-14.162l-3.013,16.914H155.471
			z M169.4,150.096h10.997l-5.355-31.99h-0.279L169.4,150.096z"/>
		<polygon fill="#61A60E" points="224.961,131.695 224.961,115.923 234.791,115.923 234.791,156.84 224.961,156.84 224.961,140.84 
					"/>
		<polygon fill="#808285" points="224.961,176.155 224.961,158.872 234.791,158.872 234.791,167.013 253.077,167.013 
			253.077,176.155 		"/>
		<polygon fill="#808285" points="197.928,176.155 197.928,99.811 221.7,99.811 221.7,108.953 207.755,108.953 207.755,176.155 		
			"/>
		<polygon fill="#808285" points="224.961,114.023 224.961,99.808 252.131,99.808 252.131,108.956 234.791,108.956 234.791,114.023 
					"/>
		<g>
			<path fill="#F5333F" d="M60.293,132.182c2.752-3.967,5.551-6.333,8.403-7.096c1.756-0.471,3.401-0.124,4.921,1.036
				c1.396,1.017,2.324,2.386,2.784,4.102c0.872,3.264,0.869,7.506-0.022,12.725c-1.002,5.787-3.165,11.503-6.491,17.153
				c-2.737,4.68-5.796,7.474-9.185,8.383c-1.254,0.337-2.455,0.409-3.606,0.225c-1.142-0.183-2.234-0.63-3.283-1.336
				c-0.174,0.675-0.279,1.107-0.323,1.299c-0.298,1.727-0.534,2.793-0.72,3.196c-0.186,0.401-0.571,0.681-1.154,0.838
				c-0.754,0.201-1.582-0.048-2.488-0.746c-0.614-0.464-1.012-1.029-1.191-1.696c-0.316-1.171,0.496-7.735,2.439-19.689
				c2.73-16.686,6.544-33.568,11.45-50.641c1.979-6.976,3.227-11.093,3.748-12.352c0.54-1.491,1.191-2.336,1.949-2.54
				c0.924-0.246,1.865-0.006,2.823,0.724c0.618,0.459,1.034,1.088,1.247,1.88c0.236,0.877,0.137,2.092-0.301,3.64
				c-0.09,0.339-0.829,2.843-2.219,7.513C64.65,112.521,61.721,123.647,60.293,132.182 M54.621,160.817
				c0.85,0.671,1.657,1.127,2.423,1.372c0.76,0.246,1.499,0.271,2.209,0.085c3.643-0.977,6.649-5.179,9.014-12.602
				c1.123-3.355,1.849-6.581,2.184-9.688c0.292-2.773,0.273-4.77-0.053-5.985c-0.226-0.838-0.574-1.407-1.064-1.704
				c-0.484-0.299-1.117-0.338-1.917-0.127c-1.93,0.518-3.9,2.461-5.915,5.834c-2.023,3.329-3.699,7.802-5.027,13.417
				c-0.626,2.684-1.126,5.178-1.496,7.48C54.739,160.176,54.621,160.817,54.621,160.817"/>
			<path fill="#F5333F" d="M93.123,118.405c0.707-0.192,1.369-0.076,1.974,0.348c0.45,0.366,0.738,0.781,0.863,1.242
				c0.198,0.753-0.063,2.169-0.804,4.248c-2.532,7.891-4.133,14.254-4.8,19.091c-0.76,4.997-1.26,10.056-1.49,15.185
				c-0.108,2.268-0.875,3.592-2.29,3.972c-0.835,0.222-1.592,0.066-2.271-0.466c-0.602-0.423-0.99-0.947-1.154-1.574
				c-0.341-1.254-0.125-5.79,0.636-13.609c0.586-6.158,2.305-13.247,5.16-21.27c0.906-2.616,1.635-4.404,2.181-5.357
				C91.667,119.218,92.328,118.616,93.123,118.405 M98.776,91.997c1.88-0.504,3.078,0.21,3.593,2.137
				c0.472,1.755,0.074,3.946-1.192,6.575c-1.204,2.52-2.619,3.998-4.248,4.436c-0.794,0.211-1.518,0.095-2.175-0.358
				c-0.648-0.408-1.077-1.012-1.291-1.806c-0.54-2.01-0.006-4.442,1.605-7.294C96.244,93.573,97.485,92.347,98.776,91.997"/>
			<path fill="#F5333F" d="M106.481,147.191c3.435-2.308,20.405-12.289,35.97-20.8c10.786-5.898,37.453-17.266,50.342-18.726
				c0.767-0.086,4.136-0.729,4.375,3.647c-0.413,0.78-0.953,1.745-1.703,1.945c-0.453,0.124-1.093,0.469-2.672,0.732
				c-14.593,2.428-37.106,11.382-47.181,16.534c-10.457,5.351-35.982,20.727-38.749,23.067c-1.958,1.68-3.314,2.619-4.065,2.818
				c-0.956,0.258-1.875,0.163-2.75-0.268c-0.822-0.408-1.331-0.966-1.521-1.676c-0.459-1.713,0.658-5.703,3.352-11.976
				c4.068-9.281,8.793-17.534,14.174-24.747c-4.381,1.755-7.404,2.856-9.067,3.299c-3.987,1.072-6.302,0.411-6.944-1.977
				c-0.199-0.752-0.118-1.449,0.248-2.087c0.335-0.582,0.795-0.952,1.378-1.11c0.503-0.134,1.651-0.284,3.438-0.45
				c0.701-0.053,1.741-0.266,3.118-0.635c3.59-0.959,6.966-2.296,10.131-4.004c1.216-0.648,2.284-1.091,3.199-1.338
				c1.043-0.28,2.02-0.14,2.932,0.426c0.689,0.404,1.142,1.002,1.353,1.795c0.373,1.385-0.388,3.208-2.284,5.471
				c-5.377,7.284-9.073,12.746-11.09,16.391C109.646,138.824,107.644,143.379,106.481,147.191"/>
			<path fill="#61A60E" d="M209.223,131.695h15.738c0,0-1.319,9.145-5.337,9.145h-10.401V131.695z"/>
			<path fill="#61A60E" d="M233.789,131.81h16.738c0,0-1.319,9.143-5.334,9.143h-11.404V131.81z"/>
			<path fill="#F5333F" d="M190.246,187.816c-1.378,0-0.965,1.52-1.254,4.013c-0.378,3.274-1.893,12.036-1.651,18.177
				c0.143,3.779-0.229,5.268,0.897,5.018c1.132-0.25,1.883,0,4.391-3.007c2.507-3.012,13.414-12.413,23.446-19.684
				c2.731-1.984,6.206-3.579,6.523-4.014c0.727-0.998-1.756-0.44-2.259-0.314c-0.503,0.127-8.399,4.89-15.924,10.845
				c-1.946,1.542-13.039,10.407-13.792,10.908c-0.748,0.501-1.126-4.514-0.627-7.521c0.503-3.01,1.251-9.78,1.88-11.41
				c0.63-1.632,0-2.383,0-2.383L190.246,187.816z"/>
			<path fill="#F5333F" d="M216.199,208.379c1.002,1.128-0.503,1.128-3.01,0.626c-2.507-0.502-6.144-2.636-9.777-3.638
				c-3.633-1.002-7.773-1.755-10.783-1.755c-3.01,0-9.092,0.315-10.345,0.819c-1.253,0.498-2.066,1.1-2.066,1.1
				s-1.384,0.213-2.008-0.538c-0.624-0.751,0.499-1.255,2.256-2.509c1.756-1.254,9.402-5.517,13.541-7.646
				c4.139-2.135,15.046-6.834,19.561-8.591c4.515-1.755,17.991-5.203,19.123-5.203c1.126,0,1.189-0.25,2.194,0.504
				c0.999,0.751-2.693,0.696-5.893,1.505c-4.267,1.07-13.042,3.759-22.071,7.896c-3.209,1.474-16.049,6.899-17.054,7.774
				c-0.999,0.877-5.517,3.261-5.517,3.261s6.709-0.377,9.216,0c2.514,0.376,12.102,2.632,14.361,3.135
				c2.252,0.501,4.391,0.876,5.393,1.502C214.324,207.249,216.199,208.379,216.199,208.379"/>
			<path fill="#F5333F" d="M191.437,188.274c1.129,0.375,2.948,1.421,7.211,6.438c4.26,5.014,8.273,7.273,9.15,8.025
				c0.878,0.753,4.624,3.439,5.517,3.887c0.894,0.446-9.56-1.662-8.558-1.789c1.002-0.124,2.886,0,0.909-1.723
				c-2.941-2.568-9.278-7.899-10.655-9.53c-1.381-1.631-2.886-2.884-4.012-3.763C189.873,188.944,191.437,188.274,191.437,188.274"
				/>
			<path fill="#808285" d="M137.377,188.195c-0.701-0.234-1.434-0.405-2.2-0.518c-0.767-0.113-1.561-0.169-2.386-0.169
				c-1.151-0.008-2.234,0.182-3.246,0.564c-1.012,0.385-1.837,1.007-2.47,1.866c-0.646,0.859-0.971,2-0.993,3.421
				c0.044,1.557,0.484,2.72,1.315,3.492c0.832,0.776,1.8,1.364,2.892,1.768c1.099,0.401,2.054,0.82,2.892,1.258
				c0.832,0.439,1.266,1.096,1.315,1.976c-0.019,0.578-0.205,1.05-0.565,1.412c-0.356,0.367-0.797,0.636-1.318,0.808
				c-0.519,0.174-1.027,0.26-1.53,0.256c-0.764-0.003-1.505-0.113-2.247-0.324c-0.735-0.208-1.434-0.493-2.098-0.856l-0.354,3.459
				c0.906,0.237,1.701,0.419,2.39,0.547c0.683,0.128,1.526,0.194,2.526,0.196c1.312,0.008,2.51-0.184,3.593-0.569
				c1.08-0.387,1.949-1.006,2.607-1.859c0.649-0.849,0.981-1.974,1.002-3.368c-0.046-1.576-0.481-2.759-1.312-3.551
				c-0.838-0.793-1.796-1.391-2.892-1.794c-1.095-0.401-2.06-0.804-2.889-1.209c-0.832-0.401-1.275-1.003-1.315-1.804
				c0.04-1.025,0.385-1.731,1.015-2.115c0.633-0.386,1.303-0.572,2.011-0.547c0.676,0,1.34,0.069,2.004,0.211
				c0.655,0.146,1.29,0.347,1.899,0.611L137.377,188.195z"/>
		</g>
		<polygon fill="#808285" points="158.899,207.02 162.747,207.02 162.747,190.86 168.242,190.86 168.242,187.84 153.404,187.84 
			153.404,190.86 158.899,190.86 		"/>
		<g>
			<path fill="#808285" d="M242.859,190.857h1.266c0.655-0.013,1.291,0.036,1.909,0.134c0.617,0.104,1.132,0.335,1.533,0.691
				c0.407,0.362,0.611,0.919,0.63,1.678c-0.019,0.786-0.227,1.373-0.633,1.755c-0.407,0.385-0.922,0.636-1.542,0.754
				c-0.617,0.116-1.251,0.172-1.896,0.158h-1.266V190.857z M239.012,207.017h3.848v-7.969h1.238
				c0.785-0.005,1.365,0.145,1.735,0.455c0.369,0.307,0.683,0.816,0.934,1.526l2.306,5.987h4.289l-3.078-7.503
				c-0.187-0.447-0.441-0.875-0.77-1.274c-0.323-0.4-0.745-0.636-1.266-0.702v-0.053c1.238-0.191,2.203-0.692,2.898-1.505
				c0.695-0.814,1.049-1.797,1.062-2.948c-0.038-1.742-0.512-2.98-1.428-3.714c-0.918-0.734-2.063-1.175-3.438-1.317
				c-1.374-0.142-2.767-0.199-4.177-0.163h-4.151V207.017z"/>
		</g>
	</g>
</g>
</svg>
