<?xml version="1.0" encoding="utf-8"?>
<!-- Generator: Adobe Illustrator 27.5.0, SVG Export Plug-In . SVG Version: 6.00 Build 0)  -->
<svg version="1.1" id="Layer_1" xmlns="http://www.w3.org/2000/svg" xmlns:xlink="http://www.w3.org/1999/xlink" x="0px" y="0px"
	 viewBox="0 0 1600 362" enable-background="new 0 0 1600 362" xml:space="preserve">
<g transform="translate(0.000000,362.000000) scale(0.100000,-0.100000)">
	<path fill="#EA3431" d="M1950,3095v-455h50h50v455v455h-50h-50V3095z"/>
	<path fill="#EA3431" d="M766,3042l-27-29l255-254c140-140,286-285,325-323l70-69l32,32l32,33l-319,319c-175,175-324,319-330,319
		C799,3070,781,3057,766,3042z"/>
	<path fill="#EA3431" d="M2845,2730l-300-300l33-32l32-33l300,300c165,165,300,303,300,307c0,9-49,58-58,58
		C3148,3030,3010,2895,2845,2730z"/>
	<path fill="#EA3431" d="M1533,2910c-13-5-23-14-23-19c0-10,149-321,154-321c14,0,66,24,66,30c0,4-27,64-60,132
		C1566,2943,1578,2928,1533,2910z"/>
	<path fill="#EA3431" d="M2414,2908c-4-6-41-80-81-162l-74-151l28-12c15-7,33-12,38-12c7,0,142,262,163,319c2,4-11,13-29,19
		C2420,2922,2423,2923,2414,2908z"/>
	<path fill="#EA3431" d="M8225,2794c-146-37-245-92-342-190c-83-84-147-203-184-344c-33-122-33-347-1-474c92-367,337-560,712-559
		c95,0,144,5,205,21c149,39,290,107,373,177l42,37v304v304h-315h-315v-125v-125l168-2l167-3l3-99c3-111,8-103-93-160
		c-97-54-158-71-260-70c-115,1-184,26-259,95c-106,97-146,204-153,409c-8,215,30,344,129,443c58,58,131,93,221,106
		c173,25,321-48,378-185c18-43,27-53,40-49c10,4,72,16,139,29c66,13,123,25,125,28c7,7-35,125-61,173c-60,107-169,195-292,235
		c-56,19-94,23-237,26C8322,2797,8236,2797,8225,2794z"/>
	<path fill="#EA3431" d="M12330,2784c-135-36-237-112-288-216c-109-221-17-467,213-574c39-18,120-46,180-63c226-64,261-75,305-98
		c60-32,83-65,88-128c10-123-91-212-253-223c-176-11-298,70-341,227l-18,63l-50-6c-28-3-88-8-133-12c-46-4-84-11-86-18
		c-2-6-1-36,3-66c22-158,130-309,270-380c94-47,180-64,325-64c205,0,337,43,438,141c117,113,165,293,122,458
		c-42,161-148,262-348,329c-26,9-114,34-195,56c-177,49-244,79-271,124c-71,115,34,217,224,217c93,0,134-10,186-47
		c47-32,69-64,84-124c8-32,16-45,28-44c9,0,73,1,142,2l125,2v33c0,17-6,55-14,84c-45,167-164,282-341,328
		C12647,2805,12407,2805,12330,2784z"/>
	<path fill="#EA3431" d="M4220,2014v-766l433,4c415,4,435,6,496,27c146,51,229,147,267,308c46,194-35,373-202,450
		c-55,25-55,25-32,41c205,136,235,413,62,586c-102,102-182,116-676,116h-348V2014z M4955,2519c166-46,160-295-9-338
		c-26-6-129-11-245-11h-201v180v180h208C4828,2530,4932,2525,4955,2519z M4934,1910c94-14,145-43,174-100c42-83,21-208-42-258
		c-53-41-90-46-331-47h-230l-3,208l-2,207h182C4783,1920,4896,1915,4934,1910z"/>
	<path fill="#EA3431" d="M5690,2015v-765h140h140v321v321l98-4c114-5,160-24,217-90c20-24,109-157,198-295l161-253h174h174l-14,23
		c-8,12-67,110-132,217c-145,243-202,319-282,378c-35,26-63,50-64,54c0,4,17,10,38,14c106,19,241,113,284,199c65,126,64,306-1,433
		c-33,65-96,128-157,158c-89,43-204,54-611,54h-363V2015z M6470,2503c56-25,74-45,95-107c23-70,4-167-42-208c-50-46-88-52-325-56
		l-228-4v194c0,107,3,198,8,202c4,5,106,6,227,4C6400,2524,6430,2522,6470,2503z"/>
	<path fill="#EA3431" d="M7150,2015v-765h144c132,0,144,1,141,18c-2,9-4,353-4,765l-1,747h-140h-140V2015z"/>
	<path fill="#EA3431" d="M9310,2015v-765h140h140v335v335h295h295v-335v-335h140h140v765v765h-140h-140v-300v-300l-22-5
		c-13-3-144-4-293-3l-270,3l-3,303l-2,302h-140h-140V2015z"/>
	<path fill="#EA3431" d="M10670,2655v-125h215h215l2-637l3-638l142-3l143-3l2,638l3,638l213,3l212,2v125v125h-575h-575V2655z"/>
	<path fill="#EA3431" d="M13370,2368c0-274,5-481,15-613c14-183,18-205,45-263c57-123,168-210,315-248c97-25,333-25,424,0
		c181,49,300,173,330,341c20,117,31,385,31,787v408h-145h-145l-1-442c0-244-4-502-8-575c-6-125-8-134-36-175c-21-30-49-52-90-73
		c-54-27-69-30-150-29c-133,1-220,47-267,142l-23,47l-3,553l-3,552h-145h-144V2368z"/>
	<path fill="#EA3431" d="M14850,2015v-765h130h130l1,293c1,160,5,383,8,495l6,204l75-129c41-70,106-182,145-248s136-231,215-367
		l144-248h148h148v765v765h-135h-135l-2-512l-3-513l-56,95c-31,52-139,237-239,410c-101,173-210,361-243,418l-60,102h-138h-139V2015
		z"/>
	<path fill="#EA3431" d="M1865,2525c-142-25-270-93-371-195c-106-109-161-205-194-342c-40-167-21-326,58-488c38-79,60-109,131-180
		c141-141,311-213,501-214c310-1,587,197,686,489c55,164,43,378-30,529C2502,2424,2189,2584,1865,2525z"/>
	<path fill="#EA3431" d="M886,2293l-16-34l157-75c87-42,162-76,167-77s15,13,22,30l14,33l-73,36c-39,20-113,56-163,79l-91,43
		L886,2293z"/>
	<path fill="#EA3431" d="M2893,2231l-152-76l14-32c8-18,16-33,18-33c5,0,320,150,324,154c9,8-24,66-37,65
		C3052,2308,2977,2274,2893,2231z"/>
	<path fill="#EA3431" d="M262,1823l3-48h455h455v45v45l-458,3l-458,2L262,1823z"/>
	<path fill="#EA3431" d="M2820,1825v-45h455h455v45v45h-455h-455V1825z"/>
	<path fill="#EA3431" d="M2762,1535c-19-42-15-51,46-77c31-14,103-49,160-77l103-51l14,33c7,17,11,35,7,39c-7,6-309,158-316,158
		C2775,1560,2768,1549,2762,1535z"/>
	<path fill="#EA3431" d="M1058,1467c-81-40-149-75-152-78c-7-7,13-69,22-69c4,0,72,32,150,70c79,39,148,70,152,70c18,0,22,22,10,51
		c-7,16-18,29-24,28C1210,1539,1139,1506,1058,1467z"/>
	<path fill="#EA3431" d="M1082,967L780,664l33-32l33-32l304,305l304,304l-29,31c-16,16-31,30-34,30C1387,1270,1249,1134,1082,967z"
		/>
	<path fill="#EA3431" d="M2575,1240l-29-31l322-322l322-322l32,33l33,32l-320,320c-176,176-322,320-326,320
		C2606,1270,2591,1256,2575,1240z"/>
	<path fill="#EA3431" d="M2298,1064l-27-14l45-93c26-50,60-122,77-159c31-71,43-78,84-55c22,12,22,12-42,147
		C2336,1096,2342,1088,2298,1064z"/>
	<path fill="#EA3431" d="M1590,908c-44-89-79-162-77-163c13-8,68-27,71-24c7,7,156,322,154,323c-11,6-60,26-64,26
		C1672,1070,1634,997,1590,908z"/>
	<path fill="#EA3431" d="M1960,545V90h45h45v455v455h-45h-45V545z"/>
	<path fill="#EA3431" d="M4270,690V450h45h45l1,183c1,213-5,219,80-95l23-88h48c47,0,47,0,59,43c6,23,24,92,41,152
		c17,61,33,120,35,133c3,12,9,22,14,22s9-79,9-175V450h45h45v240v241l-77-3l-77-3l-45-158c-24-87-47-154-52-150c-4,4-23,67-43,138
		c-53,189-43,175-126,175h-70V690z"/>
	<path fill="#EA3431" d="M5418,843c-112-271-158-384-158-389c0-3,23-4,51-2l51,3l20,53l19,52h107h107l20-53l20-52l53-3
		c28-2,52,1,52,5s-45,112-99,238l-98,230l-55,3l-54,3L5418,843z M5549,720c17-41,31-76,31-77c0-2-31-3-70-3c-41,0-70,4-70,10
		s11,36,24,68c12,31,26,66,30,76C5503,821,5514,807,5549,720z"/>
	<path fill="#EA3431" d="M6270,690V450h50h50v100v100h35c51,0,73-18,140-115l60-85h58h59l-23,38c-42,68-99,141-119,152
		c-28,15-25,27,8,33c95,19,130,148,58,216c-34,32-82,40-238,41h-138V690z M6562,833c19-17,24-58,10-81c-12-19-69-32-139-32h-63v65
		v65h87C6523,850,6548,846,6562,833z"/>
	<path fill="#EA3431" d="M7230,690V450h45h45v240v240h-45h-45V690z"/>
	<path fill="#EA3431" d="M7870,690V450h45h44l3,157l3,158l104-158l103-157h49h49v241v240l-42-3l-43-3l-5-158l-5-157l-105,160
		l-105,160h-47h-48V690z"/>
	<path fill="#EA3431" d="M8830,690V450l193,2l192,3v35v35l-142,3l-143,3v64v64l128,3l127,3l3,38l3,37h-130h-131v55v54l138,3l137,3
		v35v35l-187,3l-188,2V690z"/>
	<path fill="#EA3431" d="M10390,691V450h50h50v89v89l88,4c135,7,191,46,199,137c5,54-17,104-60,135c-25,18-46,21-178,25l-149,3V691z
		 M10651,832c15-13,22-30,22-51c0-50-23-65-108-69l-75-4v71v71h69C10611,850,10633,845,10651,832z"/>
	<path fill="#EA3431" d="M11274,916c-3-8-4-25-2-38c3-21,8-23,81-26l77-3V649V449l48,3l47,3v197v198h78h77v40v40h-200
		C11315,930,11278,927,11274,916z"/>
	<path fill="#EA3431" d="M12190,690V450h190h190l6,25c13,52,6,55-146,55h-140v65v64l128,3l127,3l3,38l3,37h-130h-131v55v54l138,3
		l137,3v35v35l-187,3l-188,2V690z"/>
	<path fill="#EA3431" d="M14592,893l3-38l78-3l77-3V650V450h45h45v200v200h80h80v40v40h-206h-205L14592,893z"/>
	<path fill="#EA3431" d="M15510,690V448l143,4c156,4,184,13,231,68c37,44,49,95,45,193c-4,76-7,90-34,128c-52,74-79,83-242,87
		l-143,4V690z M15764,840c44-16,66-65,66-147c0-79-9-112-40-143c-17-17-33-20-100-20h-80v160v160h64C15710,850,15750,846,15764,840z
		"/>
	<path fill="#EA3431" d="M13750,685V450h180h180v40v40h-130h-130v195v195h-50h-50V685z"/>
</g>
</svg>
