<?xml version="1.0" encoding="utf-8"?>
<!-- Generator: Adobe Illustrator 25.0.1, SVG Export Plug-In . SVG Version: 6.00 Build 0)  -->
<svg version="1.1" id="レイヤー_1" xmlns="http://www.w3.org/2000/svg" xmlns:xlink="http://www.w3.org/1999/xlink" x="0px"
	 y="0px" viewBox="0 0 270 33" style="enable-background:new 0 0 270 33;" xml:space="preserve">
<style type="text/css">
	.st0{fill:#E40011;}
</style>
<g>
	<g>
		<path class="st0" d="M23.2,33.4L0,16.4l23.1-16l24.8,16.1L23.2,33.4z M1.8,16.4l21.5,15.7l22.8-15.6L23.1,1.6L1.8,16.4z"/>
		<rect x="21.5" y="20.5" class="st0" width="3.1" height="8.6"/>
		<path class="st0" d="M26.4,27.2c4.6-1.4,8-5.6,8-10.7c0-6.2-5-11.1-11.1-11.1c-6.2,0-11.1,5-11.1,11.1c0,5,3.2,9.2,7.7,10.6v-3.6
			c-2.6-1.3-4.3-3.9-4.3-7c0-4.3,3.5-7.8,7.8-7.8c4.3,0,7.8,3.5,7.8,7.8c0,3.2-1.9,5.9-4.6,7.1L26.4,27.2z"/>
	</g>
	<g>
		<path d="M59.2,22.2l4-12.3h3l4,12.3h-3l-0.7-2.7h-3.6l-0.7,2.7H59.2z M63.4,17.3H66l-1.3-5h0L63.4,17.3z"/>
		<path d="M74.4,9.8v5.3h0l3.4-5.3h3.3l-4.1,5.9l4.2,6.4H78l-3.6-5.8h0v5.8h-2.9V9.8H74.4z"/>
		<path d="M81.7,22.2l4-12.3h3l4,12.3h-3L89,19.5h-3.6l-0.7,2.7H81.7z M85.8,17.3h2.6l-1.3-5h0L85.8,17.3z"/>
		<path d="M101.5,12.8c-1.2-0.6-2.4-0.9-3.5-0.9c-1,0-1.6,0.4-1.6,1.2c0,0.7,0.5,1.2,1.4,1.5c1.6,0.5,2.6,1,3.2,1.7
			c0.6,0.6,0.9,1.5,0.9,2.5c0,2.4-1.5,3.6-4.6,3.6c-1.3,0-2.5-0.3-3.5-0.9V19c1.1,0.7,2.2,1.1,3.3,1.1c0.6,0,1.1-0.1,1.4-0.3
			c0.3-0.2,0.5-0.6,0.5-1c0-0.4-0.1-0.7-0.3-0.9c-0.2-0.2-0.6-0.4-1.1-0.6c-1.4-0.4-2.4-1-3.1-1.7c-0.6-0.7-0.9-1.5-0.9-2.5
			c0-1.1,0.4-1.9,1.1-2.5c0.7-0.6,1.8-0.9,3.2-0.9c1.4,0,2.7,0.2,3.7,0.7V12.8z"/>
		<path d="M102.7,22.2l4-12.3h3l4,12.3h-3l-0.7-2.7h-3.6l-0.7,2.7H102.7z M106.8,17.3h2.6l-1.3-5h0L106.8,17.3z"/>
		<path d="M117.8,9.8v5.3h0l3.4-5.3h3.3l-4.1,5.9l4.2,6.4h-3.3l-3.6-5.8h0v5.8h-2.9V9.8H117.8z"/>
		<path d="M125.1,22.2l4-12.3h3l4,12.3h-3l-0.7-2.7h-3.6l-0.7,2.7H125.1z M129.3,17.3h2.6l-1.3-5h0L129.3,17.3z"/>
		<path d="M151.7,15.8c0,2.1-0.6,3.6-1.7,4.7c-1.1,1.1-2.8,1.6-4.9,1.6h-3.2V9.8h3.2c2.1,0,3.8,0.5,4.9,1.6
			C151.1,12.5,151.7,13.9,151.7,15.8z M148.9,15.8c0-1.3-0.3-2.2-0.9-2.8c-0.6-0.6-1.5-0.9-2.7-0.9h-0.7v7.8h0.7
			c1.2,0,2.1-0.3,2.7-1C148.6,18.3,148.9,17.3,148.9,15.8z"/>
		<path d="M153.3,11.7V9.5h2.9v2.2H153.3z M153.3,22.2v-8.8h2.9v8.8H153.3z"/>
		<path d="M160.5,18.6c0.1,0.7,0.3,1.2,0.7,1.4c0.4,0.3,1,0.4,1.8,0.4c0.6,0,1.5-0.2,2.6-0.5v2c-1,0.3-2,0.4-3,0.4
			c-1.5,0-2.7-0.4-3.5-1.2c-0.8-0.8-1.2-1.9-1.2-3.4c0-1.5,0.4-2.6,1.1-3.4s1.8-1.2,3.2-1.2c2.7,0,4.1,1.5,4.1,4.5
			c0,0.2,0,0.5-0.1,0.8H160.5z M160.5,17h3.1c0-1.3-0.5-1.9-1.5-1.9c-0.5,0-0.9,0.1-1.2,0.4C160.7,15.8,160.6,16.3,160.5,17z"/>
		<path d="M174.2,15.6c-1-0.3-1.9-0.5-2.9-0.5c-0.5,0-0.8,0.1-1,0.2c-0.2,0.1-0.3,0.3-0.3,0.5c0,0.4,0.3,0.7,1,0.8
			c1.3,0.2,2.2,0.6,2.7,1c0.5,0.5,0.8,1.1,0.8,2c0,0.8-0.3,1.5-0.9,2c-0.6,0.5-1.6,0.7-2.8,0.7s-2.4-0.2-3.4-0.5v-2.1
			c1,0.4,2,0.6,3.1,0.6c0.8,0,1.3-0.2,1.3-0.7c0-0.2-0.1-0.4-0.2-0.5c-0.2-0.1-0.4-0.2-0.9-0.3c-1.2-0.2-2.1-0.6-2.6-1
			c-0.5-0.5-0.8-1.1-0.8-1.9c0-0.8,0.3-1.5,0.9-2c0.6-0.5,1.6-0.7,2.8-0.7c1.1,0,2.1,0.1,3.2,0.4V15.6z"/>
		<path d="M178.2,18.6c0.1,0.7,0.3,1.2,0.7,1.4s1,0.4,1.8,0.4c0.6,0,1.5-0.2,2.6-0.5v2c-1,0.3-2,0.4-3,0.4c-1.5,0-2.7-0.4-3.5-1.2
			s-1.2-1.9-1.2-3.4c0-1.5,0.4-2.6,1.1-3.4s1.8-1.2,3.2-1.2c2.7,0,4.1,1.5,4.1,4.5c0,0.2,0,0.5-0.1,0.8H178.2z M178.2,17h3.1
			c0-1.3-0.5-1.9-1.5-1.9c-0.5,0-0.9,0.1-1.2,0.4C178.4,15.8,178.2,16.3,178.2,17z"/>
		<path d="M185.6,22.2V9.5h2.9v12.7H185.6z"/>
		<path d="M197.4,15.6c-1-0.3-1.9-0.5-2.9-0.5c-0.5,0-0.8,0.1-1,0.2c-0.2,0.1-0.3,0.3-0.3,0.5c0,0.4,0.3,0.7,1,0.8
			c1.3,0.2,2.2,0.6,2.7,1c0.5,0.5,0.8,1.1,0.8,2c0,0.8-0.3,1.5-0.9,2c-0.6,0.5-1.6,0.7-2.8,0.7s-2.4-0.2-3.4-0.5v-2.1
			c1,0.4,2,0.6,3.1,0.6c0.8,0,1.3-0.2,1.3-0.7c0-0.2-0.1-0.4-0.2-0.5c-0.2-0.1-0.4-0.2-0.9-0.3c-1.2-0.2-2.1-0.6-2.6-1
			c-0.5-0.5-0.8-1.1-0.8-1.9c0-0.8,0.3-1.5,0.9-2c0.6-0.5,1.6-0.7,2.8-0.7c1.1,0,2.1,0.1,3.2,0.4V15.6z"/>
		<path d="M206.9,9.8v10h5.2v2.4h-8.2V9.8H206.9z"/>
		<path d="M214.1,11.7V9.5h2.9v2.2H214.1z M214.1,22.2v-8.8h2.9v8.8H214.1z"/>
		<path d="M219.2,13.4h2.5l0.1,1.1h0c0.7-0.9,1.4-1.3,2.3-1.3c0.5,0,0.9,0.1,1.2,0.3c0.3,0.2,0.6,0.5,0.9,1h0
			c0.8-0.9,1.6-1.3,2.4-1.3c1,0,1.6,0.3,2.1,0.8c0.4,0.5,0.6,1.4,0.6,2.6v5.6h-2.7v-5.4c0-0.6-0.1-1-0.2-1.2
			c-0.1-0.2-0.4-0.3-0.8-0.3c-0.3,0-0.5,0.1-0.8,0.3c-0.2,0.2-0.4,0.4-0.4,0.6v6H224v-5.4c0-0.6-0.1-1-0.2-1.2
			c-0.1-0.2-0.4-0.3-0.8-0.3c-0.3,0-0.5,0.1-0.8,0.3c-0.3,0.2-0.4,0.4-0.4,0.6v6h-2.7V13.4z"/>
		<path d="M233.5,11.7V9.5h2.9v2.2H233.5z M233.5,22.2v-8.8h2.9v8.8H233.5z"/>
		<path d="M242.7,13.7h2.8v1.9h-2.8v3c0,0.7,0.1,1.2,0.2,1.4c0.1,0.2,0.4,0.3,0.9,0.3c0.5,0,1-0.1,1.5-0.2v2
			c-0.6,0.1-1.4,0.2-2.2,0.2c-1.2,0-2-0.2-2.4-0.7c-0.5-0.5-0.7-1.4-0.7-2.6v-3.3h-1.8v-1.9h1.8v-3.2h2.7V13.7z"/>
		<path d="M249.4,18.6c0.1,0.7,0.3,1.2,0.7,1.4s1,0.4,1.8,0.4c0.6,0,1.5-0.2,2.6-0.5v2c-1,0.3-2,0.4-3,0.4c-1.5,0-2.7-0.4-3.5-1.2
			s-1.2-1.9-1.2-3.4c0-1.5,0.4-2.6,1.1-3.4s1.8-1.2,3.2-1.2c2.7,0,4.1,1.5,4.1,4.5c0,0.2,0,0.5-0.1,0.8H249.4z M249.4,17h3.1
			c0-1.3-0.5-1.9-1.5-1.9c-0.5,0-0.9,0.1-1.2,0.4C249.6,15.8,249.4,16.3,249.4,17z"/>
		<path d="M261.8,9.5h2.7v12.7H262l0-1.1h0c-0.7,0.9-1.6,1.3-2.7,1.3c-1,0-1.8-0.4-2.5-1.2c-0.6-0.8-1-1.9-1-3.3
			c0-1.5,0.3-2.6,0.9-3.4c0.6-0.8,1.5-1.2,2.5-1.2c0.9,0,1.8,0.4,2.5,1.1h0V9.5z M258.5,17.8c0,0.9,0.2,1.5,0.5,1.9
			c0.3,0.4,0.7,0.6,1.2,0.6c0.5,0,0.8-0.2,1.2-0.5c0.3-0.3,0.5-0.6,0.5-1v-2.1c0-0.4-0.2-0.7-0.5-1c-0.3-0.3-0.7-0.5-1.2-0.5
			C259.1,15.2,258.5,16.1,258.5,17.8z"/>
		<path d="M266.8,22.2V19h3.2v3.2H266.8z"/>
	</g>
</g>
</svg>
