<svg id="レイヤー_1" data-name="レイヤー 1" xmlns="http://www.w3.org/2000/svg" width="385" height="26.85" viewBox="0 0 385 26.85"><defs><style>.cls-1{fill:#03328d;}</style></defs><title>logo</title><g id="レイヤー_2" data-name="レイヤー 2"><g id="レイヤー_1-2" data-name="レイヤー 1-2"><polygon class="cls-1" points="80.39 26.22 80.39 14.79 69.55 14.79 69.55 26.22 64.57 26.22 64.57 0.58 69.55 0.58 69.55 10.49 80.39 10.49 80.39 0.58 85.39 0.58 85.39 26.22 80.39 26.22"/><path d="M98.57,20.79l-2.36,5.43H90.92L102,0h3.76l10.8,26.22h-5.37L109,20.79m-1.54-4-3.58-9.23-3.74,9.23"/><polygon points="142.74 26.71 127.13 8.88 127.13 26.22 122.14 26.22 122.14 0 125.59 0 141.2 17.83 141.2 0.58 146.2 0.58 146.2 26.71 142.74 26.71"/><path d="M160.47,26.82a10,10,0,0,1-8.8-4.89l3.23-3.11a5.84,5.84,0,0,0,5.37,3.43,3.66,3.66,0,0,0,3.89-3.42q0-.1,0-.2a3.08,3.08,0,0,0-.55-1.73c-.62-.88-1.23-1.23-4.42-2.37a13,13,0,0,1-4.3-2.24A5.84,5.84,0,0,1,153,7.59,7.51,7.51,0,0,1,160.53.14l.42,0A11.06,11.06,0,0,1,168.45,3l-2.61,3.43a5.18,5.18,0,0,0-4.15-2.08,3.25,3.25,0,0,0-3.58,2.88,2,2,0,0,0,.43,1.3c.55.68,1.3,1.11,3.46,1.95A14.6,14.6,0,0,1,167.13,13a6.73,6.73,0,0,1,2.22,5.33,8.25,8.25,0,0,1-8.92,8.45"/><polygon points="192.84 26.22 192.84 14.79 182 14.79 182 26.22 177 26.22 177 0.58 182 0.58 182 10.49 192.84 10.49 192.84 0.58 197.84 0.58 197.84 26.22 192.84 26.22"/><rect x="206.31" y="0.58" width="5" height="25.64"/><polygon points="240.37 26.71 224.78 8.88 224.78 26.22 219.78 26.22 219.78 0 223.25 0 238.84 17.83 238.84 0.58 243.84 0.58 243.84 26.71 240.37 26.71"/><path class="cls-1" d="M279.67,23.36a13.47,13.47,0,0,1-9.19,2.92h-7.26V.58h7.34c8.12,0,13.8,5.26,13.8,12.79a12.85,12.85,0,0,1-4.65,9.93M276.4,7a9.21,9.21,0,0,0-6.85-2.08h-1.34v17h1.34a9.42,9.42,0,0,0,6.85-1.95,8.84,8.84,0,0,0,.35-12.49l-.35-.35"/><rect x="291.24" y="0.58" width="5" height="25.64"/><polygon points="304.02 26.22 304.02 0.58 318.2 0.58 318.2 4.92 309.03 4.92 309.03 10.61 317.87 10.61 317.87 14.95 309.03 14.95 309.03 21.86 318.2 21.86 318.2 26.22 304.02 26.22"/><path d="M334,26.82a10,10,0,0,1-8.8-4.89l3.23-3.11a5.84,5.84,0,0,0,5.37,3.43,3.66,3.66,0,0,0,3.89-3.42q0-.1,0-.2a3.08,3.08,0,0,0-.55-1.73c-.62-.88-1.23-1.23-4.42-2.37a13,13,0,0,1-4.3-2.24,5.84,5.84,0,0,1-1.95-4.69A7.51,7.51,0,0,1,334.06.14l.45,0A11,11,0,0,1,342,3l-2.63,3.43a5.18,5.18,0,0,0-4.15-2.08,3.25,3.25,0,0,0-3.58,2.88,2,2,0,0,0,.43,1.3c.55.68,1.3,1.11,3.46,1.95a14.64,14.64,0,0,1,5.1,2.51,6.74,6.74,0,0,1,2.26,5.37A8.25,8.25,0,0,1,334,26.8"/><polygon points="349.9 26.22 349.9 0.58 364.07 0.58 364.07 4.92 354.89 4.92 354.89 10.61 363.73 10.61 363.73 14.95 354.89 14.95 354.89 21.86 364.07 21.86 364.07 26.22 349.9 26.22"/><polygon points="372.11 26.22 372.11 0.58 377.12 0.58 377.12 21.86 385 21.86 385 26.22 372.11 26.22"/><polygon class="cls-1" points="24.51 1.62 25.52 0.86 20.42 0.86 21.45 1.62 21.45 25.62 20.42 26.38 25.52 26.38 24.51 25.62 24.51 1.62"/><polygon class="cls-1" points="19.91 0.86 0 13.61 19.91 26.38 7.14 13.61 19.91 0.86"/><polygon class="cls-1" points="45.96 13.61 26.04 0.86 38.79 13.61 26.04 26.38 45.96 13.61"/><polygon class="cls-1" points="18.12 8 18.12 12.73 15.57 12.73 15.57 8 13.78 8 13.78 19.23 15.57 19.23 15.57 14.5 18.12 14.5 18.12 19.23 19.91 19.23 19.91 8 18.12 8"/><path class="cls-1" d="M28.57,14.37a8.74,8.74,0,0,1,1.28.93,2,2,0,0,1,.37.47.82.82,0,0,1,.12.41,1.28,1.28,0,0,1-1.28,1.28h-.41a1.27,1.27,0,0,1-.78-.7H25.93A3.06,3.06,0,0,0,32,16.25,2.63,2.63,0,0,0,31.71,15a4.26,4.26,0,0,0-1-1.38,12.61,12.61,0,0,0-1.15-.8h0a8.7,8.7,0,0,1-1.28-.93,2,2,0,0,1-.37-.47.8.8,0,0,1-.12-.41,1.28,1.28,0,0,1,1.28-1.28h.41a1.28,1.28,0,0,1,.78.7H32.2a3.06,3.06,0,0,0-3-2.55h0a3.06,3.06,0,0,0-3.06,3.06,2.63,2.63,0,0,0,.31,1.25,4.2,4.2,0,0,0,1.11,1.27,12.61,12.61,0,0,0,1.15.8Z"/></g></g></svg>