<svg xmlns="http://www.w3.org/2000/svg" width="213.744" height="48.698" viewBox="0 0 213.744 48.698">
  <g id="グループ_163" data-name="グループ 163" transform="translate(-141.428 -490.389)">
    <g id="グループ_166" data-name="グループ 166" transform="translate(141.428 490.389)">
      <g id="グループ_165" data-name="グループ 165">
        <g id="グループ_164" data-name="グループ 164">
          <g id="グループ_163-2" data-name="グループ 163">
            <path id="パス_850" data-name="パス 850" d="M141.428,490.389v26.766H152.5V504.517l12.08,12.669h2.177Z" transform="translate(-141.428 -490.389)" fill="#cb000b"/>
            <path id="パス_851" data-name="パス 851" d="M169.26,517.166V490.443H158.194v12.765l-12.186-12.775h-2.176Z" transform="translate(-142.24 -490.404)" fill="#00265a"/>
          </g>
        </g>
      </g>
    </g>
    <path id="パス_852" data-name="パス 852" d="M258.822,498.823h-6.679l-6.944,7.749v-7.749h-5.256v21.508H245.2v-6.913l1.914-2.035,5.692,8.948h6.551l-8.661-12.865Zm-32.953,0-7.731,21.508h5.346l1.533-4.583h6.613l1.477,4.583h5.485l-7.645-21.508Zm.591,12.608,1.9-5.63,1.837,5.63Zm115.605.5-4.237-13.107h-6.866V520.33h4.976v-12.1l4.017,12.1h4l4.016-12.221V520.33h4.977V498.823h-6.873Zm-130.257-.5-7.456-12.6h-5.019V520.33h4.976V507.747l7.431,12.583h5.047V498.823h-4.979Zm109.627,8.9h5.256V498.823h-5.256Zm-9.5-13.633h-6.957v-7.876h-5.255v21.508h5.255v-8.867h6.957v8.867h5.256V498.823h-5.256Zm-17.169,2.049a7.708,7.708,0,0,0-2.06-1.027c-.655-.205-1.171-.348-1.56-.43-1.2-.32-2.181-.588-2.935-.8a9.983,9.983,0,0,1-1.695-.6,1.549,1.549,0,0,1-.663-.5,1.47,1.47,0,0,1-.152-.739,1.566,1.566,0,0,1,.2-.839,1.964,1.964,0,0,1,.564-.578,2.168,2.168,0,0,1,.78-.334,4.342,4.342,0,0,1,.933-.1,6.492,6.492,0,0,1,1.361.132,2.961,2.961,0,0,1,1.025.42,2.007,2.007,0,0,1,.673.774,3.291,3.291,0,0,1,.319,1.334l.026.449h5.081v-.478a7.07,7.07,0,0,0-.693-3.255,6.309,6.309,0,0,0-1.88-2.225,7.64,7.64,0,0,0-2.666-1.242,12.328,12.328,0,0,0-3.054-.374,9.945,9.945,0,0,0-2.756.392,7.581,7.581,0,0,0-2.5,1.229,6.505,6.505,0,0,0-1.814,2.1,6.074,6.074,0,0,0-.7,2.981,5.752,5.752,0,0,0,.558,2.622,5.531,5.531,0,0,0,1.451,1.811,7.707,7.707,0,0,0,1.98,1.15,17.922,17.922,0,0,0,2.191.725c.7.209,1.412.4,2.109.579a12.191,12.191,0,0,1,1.792.58,3.55,3.55,0,0,1,1.168.759,1.367,1.367,0,0,1,.369,1.019,1.6,1.6,0,0,1-.285.995,2.268,2.268,0,0,1-.793.653,3.644,3.644,0,0,1-1.088.342,7.537,7.537,0,0,1-1.156.1,5.689,5.689,0,0,1-1.516-.2,3.505,3.505,0,0,1-1.219-.58,2.764,2.764,0,0,1-.8-1,3.443,3.443,0,0,1-.306-1.543v-.479h-5.092l-.016.461c0,.059,0,.112,0,.161a7.49,7.49,0,0,0,.707,3.349,6.853,6.853,0,0,0,1.983,2.438,8.18,8.18,0,0,0,2.843,1.39,12.2,12.2,0,0,0,3.259.435,11.953,11.953,0,0,0,3.657-.513,7.826,7.826,0,0,0,2.707-1.46,6.128,6.128,0,0,0,1.673-2.265,7.038,7.038,0,0,0,.56-2.806,5.7,5.7,0,0,0-.773-3.091A6.479,6.479,0,0,0,294.769,508.747Zm-27.654-9.924-7.733,21.508h5.346l1.532-4.583h6.614l1.477,4.583h5.484l-7.645-21.508Zm.59,12.608,1.9-5.632,1.838,5.632Zm99.4-12.608h-5.08L354.3,520.331h5.344l1.533-4.583h6.614l1.478,4.583h5.483Zm-4.489,12.608,1.9-5.631,1.837,5.631Z" transform="translate(-19.576 -2.684)" fill="#1a1311"/>
    <path id="パス_853" data-name="パス 853" d="M231.307,553.133l-.3-5.988H228.9l-3.083,5.975,0-5.975h-2.141l.453,8.575H226.4l2.952-6.049.394,6.049h2.294l.029-.052,4.608-8.523h-2.492Zm26.432-6a8.807,8.807,0,0,0-1.738-.161,5.609,5.609,0,0,0-4.075,1.57,5.461,5.461,0,0,0-1.6,4.062,3.014,3.014,0,0,0,1.026,2.438,4.364,4.364,0,0,0,2.867.861,6.777,6.777,0,0,0,1.8-.2,9.9,9.9,0,0,0,1.658-.623l.044-.021.917-4.1H254.77l-.377,1.6h1.746l-.024.106-.395,1.7-.014.058-.061.006c-.089.009-.182.015-.288.02s-.2.005-.287.005a2.956,2.956,0,0,1-1.936-.517,2.013,2.013,0,0,1-.609-1.609,4.564,4.564,0,0,1,.242-1.479,3.116,3.116,0,0,1,.671-1.143,3.319,3.319,0,0,1,1.092-.775,3.472,3.472,0,0,1,1.435-.289,4.049,4.049,0,0,1,1.425.24,6.607,6.607,0,0,1,1.3.644l.115.075.526-1.9-.074-.036A6.056,6.056,0,0,0,257.74,547.136Zm7.9,1.954a4.594,4.594,0,0,0-1.789.336,3.92,3.92,0,0,0-2.192,2.285,4.725,4.725,0,0,0-.291,1.647,2.388,2.388,0,0,0,.76,1.887,3.206,3.206,0,0,0,2.2.682,4.592,4.592,0,0,0,1.775-.315,4.073,4.073,0,0,0,1.334-.914,4.01,4.01,0,0,0,.859-1.363,4.8,4.8,0,0,0,.3-1.71,2.349,2.349,0,0,0-.756-1.861A3.224,3.224,0,0,0,265.642,549.09Zm.786,3.824a3.3,3.3,0,0,1-.42.922,1.944,1.944,0,0,1-.624.6,1.507,1.507,0,0,1-.775.222,1.212,1.212,0,0,1-.88-.315,1.393,1.393,0,0,1-.325-1.029,4.7,4.7,0,0,1,.139-1.145,3.138,3.138,0,0,1,.389-.941,2.112,2.112,0,0,1,.624-.643,1.5,1.5,0,0,1,.828-.23,1.1,1.1,0,0,1,.9.357,1.536,1.536,0,0,1,.283.985A4.52,4.52,0,0,1,266.429,552.914Zm15.949-3.873a1.553,1.553,0,0,0-.8-1.389,4.534,4.534,0,0,0-2.369-.506h-3.126l-1.983,8.575h3.687a5.567,5.567,0,0,0,3.151-.761,2.374,2.374,0,0,0,1.094-2.083,1.441,1.441,0,0,0-.342-1.034,3.289,3.289,0,0,0-1-.674,4.057,4.057,0,0,0,1.271-.861A1.881,1.881,0,0,0,282.377,549.041Zm-3.047,4.913a3.062,3.062,0,0,1-1.566.335h-1.244l.025-.1.5-2.172.016-.066h1.244a2.383,2.383,0,0,1,1.189.225.832.832,0,0,1,.408.766A1.112,1.112,0,0,1,279.331,553.953Zm.375-3.652a2.08,2.08,0,0,1-1.2.3h-1.131l.024-.1.426-1.856.016-.066h1.081a1.8,1.8,0,0,1,.886.186.686.686,0,0,1,.349.637A1.027,1.027,0,0,1,279.705,550.3ZM298,553.163l-.623-3.867h-2.159l1.535,5.636-2.144,3.208h2.21l.03-.044,5.771-8.8h-2.066Zm10.4-4.074a4.577,4.577,0,0,0-1.789.336,3.918,3.918,0,0,0-1.342.918,3.982,3.982,0,0,0-.851,1.367,4.655,4.655,0,0,0-.288,1.647,2.379,2.379,0,0,0,.759,1.887,3.207,3.207,0,0,0,2.2.682,4.588,4.588,0,0,0,1.775-.315,4.079,4.079,0,0,0,1.333-.913,3.984,3.984,0,0,0,.86-1.364,4.787,4.787,0,0,0,.3-1.709,2.347,2.347,0,0,0-.755-1.862A3.24,3.24,0,0,0,308.4,549.09Zm.789,3.823a3.353,3.353,0,0,1-.421.924,1.974,1.974,0,0,1-.624.6,1.515,1.515,0,0,1-.777.22,1.214,1.214,0,0,1-.88-.315,1.371,1.371,0,0,1-.324-1.029,4.758,4.758,0,0,1,.14-1.144,3.128,3.128,0,0,1,.389-.941,2.127,2.127,0,0,1,.62-.643,1.507,1.507,0,0,1,.829-.229,1.094,1.094,0,0,1,.906.357,1.532,1.532,0,0,1,.283.985A4.638,4.638,0,0,1,309.19,552.913Zm10.474-3.8a4.811,4.811,0,0,0-1.6.383,5.586,5.586,0,0,0-.84.45l.137-.647H315.4l-1.481,6.425h1.953l1.056-4.609.007-.038.038-.02a5.049,5.049,0,0,1,.755-.331,1.993,1.993,0,0,1,.609-.114,1.132,1.132,0,0,1,.77.2.79.79,0,0,1,.222.618,2.822,2.822,0,0,1-.048.5c-.031.175-.077.383-.131.628l-.719,3.168h1.961l.97-4.226a3.828,3.828,0,0,0,.072-.422,2.987,2.987,0,0,0,.022-.371,1.475,1.475,0,0,0-.465-1.183A1.967,1.967,0,0,0,319.665,549.109Zm-78.159-.02a4.691,4.691,0,0,0-1.75.317,3.814,3.814,0,0,0-1.323.855,3.9,3.9,0,0,0-.844,1.3,4.36,4.36,0,0,0-.294,1.62,2.423,2.423,0,0,0,.885,2,3.97,3.97,0,0,0,2.548.726,7.548,7.548,0,0,0,1.436-.134l.135-.028a4.679,4.679,0,0,0,.931-.254l.044-.019.525-1.673-.183.058c-.419.132-.741.246-1.025.345a4.09,4.09,0,0,1-1.346.22,2.566,2.566,0,0,1-1.532-.371,1.115,1.115,0,0,1-.512-1.009v-.22h4.931l.022-.07a5.979,5.979,0,0,0,.165-.622,3.89,3.89,0,0,0,.076-.765,2.033,2.033,0,0,0-.718-1.7A3.461,3.461,0,0,0,241.506,549.09Zm.951,2.4c-.009.059-.016.126-.028.195l-.013.072h-3.042l.041-.115a2.263,2.263,0,0,1,.7-1.025,1.784,1.784,0,0,1,1.15-.373,1.312,1.312,0,0,1,.882.269.973.973,0,0,1,.318.782C242.464,551.352,242.462,551.416,242.456,551.485Zm46.908-2.4a4.72,4.72,0,0,0-1.75.316,3.84,3.84,0,0,0-1.324.857,3.912,3.912,0,0,0-.843,1.3,4.346,4.346,0,0,0-.292,1.62,2.419,2.419,0,0,0,.884,2,3.964,3.964,0,0,0,2.548.726,7.625,7.625,0,0,0,1.436-.133l.134-.028a4.674,4.674,0,0,0,.931-.254l.044-.018.524-1.675-.183.058c-.418.133-.74.247-1.023.346a4.114,4.114,0,0,1-1.346.22,2.569,2.569,0,0,1-1.532-.371,1.115,1.115,0,0,1-.512-1.008v-.221h4.931l.023-.071c.068-.217.122-.421.163-.621a3.8,3.8,0,0,0,.075-.765,2.029,2.029,0,0,0-.717-1.7A3.465,3.465,0,0,0,289.364,549.089Zm.951,2.4c-.007.06-.015.126-.028.2l-.013.072h-3.043l.042-.115a2.277,2.277,0,0,1,.7-1.026,1.783,1.783,0,0,1,1.151-.373,1.324,1.324,0,0,1,.884.269.977.977,0,0,1,.317.781C290.323,551.353,290.321,551.416,290.315,551.484Zm40.093-4.734-.635,2.74-.025.108-.1-.052a3.766,3.766,0,0,0-.806-.33,3.483,3.483,0,0,0-.917-.106,3.048,3.048,0,0,0-1.436.354,3.853,3.853,0,0,0-1.194.958,4.844,4.844,0,0,0-.817,1.44,4.994,4.994,0,0,0-.3,1.738,2.44,2.44,0,0,0,.551,1.709h0a2.32,2.32,0,0,0,1.655.589,3.033,3.033,0,0,0,.426-.028,3.808,3.808,0,0,0,1.648-.632l-.134.481h1.956l2.078-8.97Zm-.9,3.871-.751,3.31-.008.022-.019.019a1.965,1.965,0,0,1-1.367.567,1.766,1.766,0,0,1-.343-.033c-.042-.009-.075-.017-.1-.022l-.023-.007h0a1.191,1.191,0,0,1-.751-1.256,2.276,2.276,0,0,1,.06-.523c.49-2.107,1.636-2.377,2.282-2.386a2.4,2.4,0,0,1,.971.212l.061.029Z" transform="translate(-27.802 -19.054)" fill="#1a1311"/>
  </g>
</svg>
